HIERARCHY
ROOT Hips
{
	OFFSET 54.860600 -3.961384 84.456497
	CHANNELS 6 Xposition Yposition Zposition Xrotation Yrotation Zrotation
	JOINT spine
	{
		OFFSET 0.000000 -0.342408 5.954376
		CHANNELS 3 Xrotation Yrotation Zrotation
		JOINT spine1
		{
			OFFSET 0.000000 -0.000001 8.856018
			CHANNELS 3 Xrotation Yrotation Zrotation
			JOINT spine2
			{
				OFFSET 0.000000 -0.000001 8.485672
				CHANNELS 3 Xrotation Yrotation Zrotation
				JOINT Neck
				{
					OFFSET 0.000000 -1.038703 21.786301
					CHANNELS 3 Xrotation Yrotation Zrotation
					JOINT Head
					{
						OFFSET 0.000000 -0.000001 6.582199
						CHANNELS 3 Xrotation Yrotation Zrotation
						End Site
						{
							OFFSET 0.000000 5.254358 15.932602
						}
					}
				}
				JOINT RightShoulder
				{
					OFFSET -3.573071 0.497524 9.163864
					CHANNELS 3 Xrotation Yrotation Zrotation
					JOINT RightArm
					{
						OFFSET 0.000000 -0.000002 12.019196
						CHANNELS 3 Xrotation Yrotation Zrotation
						JOINT RightArmRoll
						{
							OFFSET 0.000000 -0.000001 6.067551
							CHANNELS 3 Xrotation Yrotation Zrotation
							JOINT RightForeArm
							{
								OFFSET 0.000000 -0.000003 17.672607
								CHANNELS 3 Xrotation Yrotation Zrotation
								JOINT RightForeArmRoll
								{
									OFFSET 0.000000 -0.000001 6.808716
									CHANNELS 3 Xrotation Yrotation Zrotation
									JOINT RightHand
									{
										OFFSET 0.000000 -0.000002 13.663605
										CHANNELS 3 Xrotation Yrotation Zrotation
										End Site
										{
											OFFSET 0.000000 0.000000 0.100006
										}
									}
								}
							}
						}
					}
				}
				JOINT LeftShoulder
				{
					OFFSET 3.573071 0.497524 9.163864
					CHANNELS 3 Xrotation Yrotation Zrotation
					JOINT LeftArm
					{
						OFFSET 0.000000 -0.000002 12.019196
						CHANNELS 3 Xrotation Yrotation Zrotation
						JOINT LeftArmRoll
						{
							OFFSET 0.000000 -0.000001 6.067551
							CHANNELS 3 Xrotation Yrotation Zrotation
							JOINT LeftForeArm
							{
								OFFSET 0.000000 -0.000003 17.672607
								CHANNELS 3 Xrotation Yrotation Zrotation
								JOINT LeftForeArmRoll
								{
									OFFSET 0.000000 -0.000001 6.808716
									CHANNELS 3 Xrotation Yrotation Zrotation
									JOINT LeftHand
									{
										OFFSET 0.000000 -0.000002 13.663605
										CHANNELS 3 Xrotation Yrotation Zrotation
										End Site
										{
											OFFSET 0.000000 0.000000 0.100006
										}
									}
								}
							}
						}
					}
				}
			}
		}
	}
	JOINT RightUpLeg
	{
		OFFSET -5.277740 0.811858 -0.967796
		CHANNELS 3 Xrotation Yrotation Zrotation
		JOINT RightUpLegRoll
		{
			OFFSET 0.000000 -0.000003 16.021400
			CHANNELS 3 Xrotation Yrotation Zrotation
			JOINT RightLeg
			{
				OFFSET 0.000000 0.000003 -19.840103
				CHANNELS 3 Xrotation Yrotation Zrotation
				JOINT RightLegRoll
				{
					OFFSET 0.000000 -0.000003 19.904999
					CHANNELS 3 Xrotation Yrotation Zrotation
					JOINT RightFoot
					{
						OFFSET 0.000000 -0.000003 16.567497
						CHANNELS 3 Xrotation Yrotation Zrotation
						JOINT RightToeBase
						{
							OFFSET 0.000000 -0.000002 13.849602
							CHANNELS 3 Xrotation Yrotation Zrotation
							End Site
							{
								OFFSET 0.005871 0.773116 6.707275
							}
						}
					}
				}
			}
		}
	}
	JOINT LeftUpLeg
	{
		OFFSET 5.277740 0.811858 -0.967796
		CHANNELS 3 Xrotation Yrotation Zrotation
		JOINT LeftUpLegRoll
		{
			OFFSET 0.000000 -0.000003 16.021500
			CHANNELS 3 Xrotation Yrotation Zrotation
			JOINT LeftLeg
			{
				OFFSET 0.000000 -0.000003 19.840004
				CHANNELS 3 Xrotation Yrotation Zrotation
				JOINT LeftLegRoll
				{
					OFFSET 0.000000 -0.000003 20.089005
					CHANNELS 3 Xrotation Yrotation Zrotation
					JOINT LeftFoot
					{
						OFFSET 0.000000 -0.000003 16.383499
						CHANNELS 3 Xrotation Yrotation Zrotation
						JOINT LeftToeBase
						{
							OFFSET 0.000000 -0.000002 13.849594
							CHANNELS 3 Xrotation Yrotation Zrotation
							End Site
							{
								OFFSET -0.026310 0.773116 6.707275
							}
						}
					}
				}
			}
		}
	}
}
MOTION
Frames: 13
Frame Time: 0.041667
55.232800 -3.460132 84.504997 -11.716647 -3.005721 2.381675 -0.677907 0.386006 0.040514 2.645823 0.775125 0.081608 4.290963 0.776080 0.079267 8.628375 12.239778 -1.223249 8.682465 -13.954059 -0.926227 5.022001 -64.518814 5.106367 -70.530173 -146.592908 -93.496486 -0.000005 -0.000023 0.000004 61.015036 2.854093 -4.184729 0.000002 -0.000000 -2.999986 -5.000183 -7.999907 0.000007 -21.572102 69.338079 25.289071 -67.905590 158.058145 95.867005 0.000003 0.000001 -0.000000 54.534597 -3.045053 4.006278 0.000002 -0.000003 2.999990 -5.000171 7.999927 -0.000006 5.657476 -174.861025 6.870770 -179.999991 0.000005 -1.202996 169.410015 -3.438560 -0.637480 0.000001 -0.000002 0.163393 70.608214 6.860893 2.098710 25.456953 -7.355615 0.000010 7.329052 -179.136123 0.004943 -0.000004 -0.000004 -1.207460 -7.063347 2.783737 0.340502 -0.000001 -0.000004 -0.080303 69.135188 -6.869614 -2.149092 25.456952 7.355613 0.000000 
55.233395 -3.457534 84.507896 -11.723874 -2.998093 2.380070 -0.677823 0.384459 0.040527 2.646160 0.770465 0.081635 4.291299 0.771423 0.079205 8.654593 12.299127 -1.232574 8.632477 -14.008904 -0.939576 5.025449 -64.518800 5.110250 -70.768048 -146.447274 -93.480127 -0.000007 -0.000023 0.000004 61.045191 2.853012 -4.185697 0.000001 -0.000004 -2.999988 -5.000184 -7.999902 0.000010 -21.619731 69.375522 25.341653 -68.110482 157.978041 95.854328 0.000002 0.000000 0.000001 54.538330 -3.045224 4.006420 0.000000 -0.000006 2.999990 -5.000173 7.999927 -0.000007 5.674706 -174.878101 6.860308 -179.999991 0.000006 -1.202996 169.429235 -3.431898 -0.636044 0.000001 -0.000002 0.163412 70.598659 6.860927 2.098707 25.456953 -7.355613 0.000010 7.321427 -179.150985 -0.009088 -0.000005 -0.000004 -1.207470 -7.090504 2.789318 0.340725 -0.000002 -0.000004 -0.080296 69.150399 -6.869645 -2.149056 25.456953 7.355613 -0.000001 
55.238495 -3.447392 84.508591 -11.730607 -2.990910 2.379282 -0.677744 0.382945 0.040539 2.646506 0.765937 0.081661 4.291644 0.766898 0.079142 8.679814 12.357702 -1.242205 8.582338 -14.062077 -0.953539 5.024388 -64.518739 5.109036 -71.003771 -146.302502 -93.464042 -0.000005 -0.000024 0.000004 61.077464 2.851862 -4.186712 0.000002 -0.000003 -2.999989 -5.000185 -7.999906 0.000007 -21.666665 69.413191 25.393417 -68.313353 157.900313 95.843065 0.000001 0.000001 -0.000002 54.538654 -3.045472 4.006457 -0.000001 -0.000005 2.999993 -5.000173 7.999931 -0.000008 5.691282 -174.895149 6.850180 -179.999991 0.000005 -1.202996 169.447732 -3.425227 -0.634655 0.000001 -0.000002 0.163429 70.589513 6.860931 2.098671 25.456957 -7.355613 0.000010 7.313905 -179.165848 -0.022538 -0.000005 -0.000004 -1.207490 -7.116507 2.794639 0.340955 -0.000002 -0.000004 -0.080288 69.164989 -6.869670 -2.148956 25.456950 7.355613 -0.000001 
55.235096 -3.452423 84.508698 -11.736846 -2.984400 2.379713 -0.677658 0.381514 0.040551 2.646864 0.761675 0.081688 4.292000 0.762639 0.079077 8.703179 12.414450 -1.252147 8.533043 -14.112644 -0.968082 5.017041 -64.518083 5.100744 -71.236844 -146.158999 -93.449870 -0.000009 -0.000022 0.000004 61.112339 2.850640 -4.187782 0.000005 -0.000000 -2.999990 -5.000183 -7.999908 0.000008 -21.711657 69.450368 25.443032 -68.512746 157.826438 95.831126 -0.000001 0.000001 -0.000001 54.535058 -3.045826 4.006377 0.000003 -0.000006 2.999985 -5.000175 7.999929 -0.000007 5.706768 -174.910216 6.840752 -179.999991 0.000005 -1.203994 169.465231 -3.419511 -0.633509 0.000002 -0.000002 0.163446 70.581023 6.860974 2.098701 25.456957 -7.355616 0.000011 7.306577 -179.179727 -0.034958 -0.000005 -0.000004 -1.207510 -7.140706 2.799512 0.341191 -0.000002 -0.000004 -0.080280 69.178499 -6.869672 -2.148917 25.456953 7.355613 -0.000000 
55.208496 -3.464323 84.511002 -11.742295 -2.978798 2.381770 -0.677556 0.380206 0.040562 2.647231 0.757812 0.081715 4.292365 0.758778 0.079013 8.723845 12.468305 -1.262403 8.485562 -14.159584 -0.983151 5.001675 -64.516696 5.083455 -71.464659 -146.017970 -93.435267 -0.000004 -0.000021 0.000005 61.150520 2.849321 -4.188923 0.000006 -0.000002 -2.999989 -5.000184 -7.999905 0.000004 -21.753729 69.486554 25.489366 -68.708998 157.755964 95.821263 0.000001 -0.000000 0.000001 54.527261 -3.046257 4.006161 -0.000001 -0.000005 2.999990 -5.000173 7.999929 -0.000004 5.720741 -174.924273 6.832111 -179.999991 0.000005 -1.203993 169.481022 -3.413789 -0.632472 0.000002 -0.000002 0.163463 70.573374 6.861024 2.098683 25.456957 -7.355615 0.000011 7.299547 -179.191611 -0.045904 -0.000005 -0.000004 -1.207530 -7.162459 2.803785 0.341433 -0.000001 -0.000004 -0.080273 69.190650 -6.869666 -2.148762 25.456952 7.355613 -0.000000 
55.208393 -3.475104 84.510292 -11.746751 -2.974325 2.385847 -0.677445 0.379073 0.040574 2.647590 0.754479 0.081742 4.292722 0.755447 0.078947 8.740953 12.518115 -1.272958 8.440888 -14.202067 -0.998663 4.976472 -64.514142 5.055149 -71.687302 -145.879494 -93.422767 -0.000007 -0.000022 0.000005 61.192416 2.847913 -4.190132 0.000006 -0.000000 -2.999987 -5.000186 -7.999904 0.000004 -21.791859 69.521258 25.531295 -68.900688 157.690394 95.811244 -0.000001 0.000001 -0.000003 54.514748 -3.046799 4.005787 0.000003 -0.000004 2.999989 -5.000169 7.999929 -0.000006 5.732761 -174.937319 6.824401 -179.999991 0.000005 -1.203993 169.494805 -3.409025 -0.631753 0.000002 -0.000002 0.163479 70.567008 6.861051 2.098680 25.456955 -7.355616 0.000012 7.292888 -179.201501 -0.055056 -0.000004 -0.000004 -1.207550 -7.181104 2.807271 0.341676 -0.000002 -0.000004 -0.080266 69.200895 -6.869701 -2.148633 25.456953 7.355613 -0.000001 
55.196293 -3.471334 84.508904 -11.750022 -2.971215 2.392356 -0.677308 0.378158 0.040586 2.647939 0.751810 0.081769 4.293070 0.752779 0.078881 8.753645 12.562820 -1.283805 8.400017 -14.239066 -1.014567 4.939734 -64.510283 5.013935 -71.902781 -145.744462 -93.411149 -0.000005 -0.000023 0.000006 61.238820 2.846369 -4.191422 0.000003 -0.000000 -2.999987 -5.000182 -7.999908 0.000006 -21.824939 69.553988 25.567613 -69.087842 157.629660 95.803041 -0.000000 -0.000001 -0.000001 54.497120 -3.047450 4.005255 -0.000001 -0.000004 2.999988 -5.000170 7.999928 -0.000007 5.742434 -174.947359 6.818007 -179.999991 0.000005 -1.203993 169.506075 -3.404232 -0.630164 0.000001 -0.000002 0.163494 70.562029 6.861094 2.098594 25.456953 -7.355614 0.000011 7.286713 -179.210435 -0.062221 -0.000005 -0.000004 -1.207570 -7.195987 2.809809 0.341921 -0.000002 -0.000004 -0.080258 69.208927 -6.869727 -2.148541 25.456957 7.355614 -0.000000 
55.200798 -3.461681 84.507500 -11.751912 -2.969696 2.401690 -0.677153 0.377507 0.040597 2.648268 0.749935 0.081796 4.293399 0.750907 0.078814 8.761055 12.601262 -1.294919 8.363929 -14.269560 -1.030796 4.889616 -64.504525 4.957783 -72.110521 -145.613308 -93.401758 -0.000005 -0.000024 0.000005 61.290354 2.844703 -4.192818 0.000003 -0.000003 -2.999992 -5.000185 -7.999907 0.000006 -21.851763 69.584041 25.596977 -69.269224 157.574745 95.795445 -0.000000 -0.000001 -0.000000 54.473989 -3.048214 4.004536 -0.000000 -0.000006 2.999988 -5.000169 7.999926 -0.000008 5.749305 -174.954380 6.813085 -179.999991 0.000005 -1.203994 169.514326 -3.401367 -0.630138 0.000001 -0.000002 0.163509 70.558634 6.861121 2.098609 25.456957 -7.355612 0.000010 7.281080 -179.215380 -0.066701 -0.000005 -0.000004 -1.207590 -7.206469 2.811223 0.342164 -0.000002 -0.000004 -0.080250 69.214323 -6.869755 -2.148510 25.456953 7.355614 -0.000000 
55.203098 -3.461174 84.506500 -11.752310 -2.969771 2.413943 -0.677000 0.377061 0.040608 2.648557 0.748720 0.081823 4.293697 0.749690 0.078747 8.763757 12.634718 -1.306649 8.330940 -14.293797 -1.047964 4.823721 -64.496882 4.883969 -72.312230 -145.486103 -93.392810 -0.000002 -0.000023 0.000006 61.345378 2.842944 -4.194292 0.000006 -0.000002 -2.999991 -5.000184 -7.999903 0.000005 -21.874034 69.612585 25.621284 -69.447021 157.525445 95.789435 0.000003 -0.000002 0.000000 54.444534 -3.049118 4.003603 -0.000002 -0.000006 2.999991 -5.000171 7.999927 -0.000008 5.753490 -174.960377 6.809425 -179.999991 0.000005 -1.203994 169.519763 -3.398485 -0.629272 0.000002 -0.000002 0.163523 70.556838 6.861168 2.098527 25.456953 -7.355614 0.000012 7.275955 -179.219328 -0.068859 -0.000005 -0.000004 -1.207610 -7.212648 2.811512 0.342414 -0.000002 -0.000004 -0.080242 69.217274 -6.869730 -2.148423 25.456950 7.355613 -0.000000 
55.204891 -3.458043 84.503601 -11.751525 -2.971169 2.428714 -0.676878 0.376724 0.040619 2.648816 0.747905 0.081851 4.293946 0.748876 0.078676 8.763118 12.665118 -1.319199 8.298726 -14.313256 -1.066552 4.742272 -64.487504 4.792706 -72.512895 -145.361288 -93.386574 -0.000006 -0.000023 0.000007 61.402110 2.841138 -4.195797 0.000004 -0.000005 -2.999992 -5.000184 -7.999903 0.000007 -21.894276 69.641087 25.643308 -69.622673 157.481705 95.783663 0.000001 -0.000001 -0.000000 54.408450 -3.050197 4.002458 0.000001 -0.000005 2.999993 -5.000173 7.999925 -0.000009 5.755540 -174.963396 6.806984 -179.999991 0.000005 -1.205004 169.523096 -3.396547 -0.628711 0.000002 -0.000002 0.163538 70.556332 6.861228 2.098471 25.456953 -7.355615 0.000010 7.271174 -179.220312 -0.068802 -0.000004 -0.000004 -1.207629 -7.215346 2.810880 0.342684 -0.000002 -0.000004 -0.080235 69.218032 -6.869767 -2.148384 25.456952 7.355613 -0.000000 
55.215401 -3.450913 84.502197 -11.749647 -2.973735 2.445663 -0.676780 0.376485 0.040630 2.649036 0.747450 0.081878 4.294176 0.748421 0.078605 8.759558 12.692840 -1.332439 8.267194 -14.328427 -1.086340 4.647551 -64.476501 4.686556 -72.711544 -145.238809 -93.381629 -0.000004 -0.000023 0.000007 61.460665 2.839310 -4.197354 0.000004 -0.000001 -2.999994 -5.000185 -7.999906 0.000005 -21.912358 69.669330 25.662926 -69.796843 157.441994 95.780446 -0.000002 0.000001 -0.000000 54.366472 -3.051424 4.001119 -0.000001 -0.000006 2.999988 -5.000172 7.999928 -0.000005 5.755744 -174.964380 6.805582 -179.999991 0.000005 -1.205004 169.524612 -3.395582 -0.628440 0.000001 -0.000002 0.163551 70.556961 6.861237 2.098532 25.456957 -7.355615 0.000011 7.266684 -179.219328 -0.066897 -0.000005 -0.000005 -1.207650 -7.215017 2.809444 0.342966 -0.000002 -0.000004 -0.080227 69.217082 -6.869791 -2.148247 25.456950 7.355613 0.000000 
55.205498 -3.449045 84.507698 -11.746882 -2.977290 2.464464 -0.676695 0.376335 0.040641 2.649246 0.747314 0.081905 4.294386 0.748285 0.078534 8.753478 12.718371 -1.346251 8.236306 -14.340004 -1.107103 4.541914 -64.464364 4.568147 -72.908690 -145.118147 -93.379143 -0.000003 -0.000022 0.000004 61.521215 2.837426 -4.198945 0.000005 -0.000001 -2.999987 -5.000181 -7.999906 0.000004 -21.928638 69.697511 25.680517 -69.968253 157.407215 95.776587 0.000002 -0.000002 0.000001 54.319275 -3.052774 3.999600 -0.000000 -0.000006 2.999989 -5.000170 7.999927 -0.000006 5.754368 -174.964366 6.804992 -179.999991 0.000005 -1.205004 169.524503 -3.394600 -0.628264 0.000002 -0.000002 0.163564 70.558586 6.861287 2.098440 25.456957 -7.355614 0.000011 7.262468 -179.216336 -0.063386 -0.000005 -0.000004 -1.207670 -7.212092 2.807348 0.343261 -0.000002 -0.000004 -0.080219 69.214542 -6.869803 -2.148204 25.456952 7.355614 -0.000001 
55.201096 -3.456105 84.505798 -11.743425 -2.981675 2.484792 -0.676613 0.376263 0.040652 2.649456 0.747456 0.081933 4.294597 0.748425 0.078460 8.745256 12.741798 -1.360452 8.206024 -14.348388 -1.128659 4.427659 -64.451325 4.440055 -73.102770 -144.999589 -93.376527 -0.000005 -0.000022 0.000004 61.583970 2.835472 -4.200586 0.000006 -0.000003 -2.999992 -5.000182 -7.999906 0.000006 -21.943169 69.725508 25.696138 -70.137642 157.375946 95.774641 0.000001 0.000000 0.000000 54.267461 -3.054241 3.997943 -0.000000 -0.000006 2.999988 -5.000174 7.999928 -0.000007 5.751687 -174.962358 6.805215 -179.999991 0.000005 -1.205004 169.523123 -3.393605 -0.628166 0.000001 -0.000002 0.163577 70.560922 6.861313 2.098500 25.456952 -7.355616 0.000011 7.258474 -179.213358 -0.058766 -0.000005 -0.000004 -1.207690 -7.206989 2.804691 0.343560 -0.000002 -0.000004 -0.080211 69.210751 -6.869819 -2.148144 25.456948 7.355613 -0.000000 
